#!OML:ASF I:\Actors\actors\Patient Classification 2\Patient 1\Session 1\actor1.ASF
:FULLY-SPECIFIED
:DEGREES
738
root 0.0477233 18.8179 5.1744 8.86114 1.96423 -1.01424
lowerback 23.0923 -0.46587 0.378779
upperback 10.0556 -0.439742 1.547
thorax -1.856 -0.239343 1.54712
lowerneck -23.0036 -1.73979 -2.39845
upperneck 20.7714 -2.36956 3.08711
head 10.5343 -0.884711 1.1364
rclavicle 1.43125e-014 -4.96962e-015
rhumerus -34.8577 73.7843 -120.899
rradius 104.764
rwrist -40.4582
rhand 36.1197 -39.5416
rfingers 7.12502
rthumb 59.1083 -54.2251
lclavicle 1.43125e-014 -4.96962e-015
lhumerus -48.7255 -63.9671 144.128
lradius 119.987
lwrist 33.1107
lhand 6.44863 -12.2367
lfingers 7.12502
lthumb 31.7507 15.0189
rfemur -2.57868 0.652393 12.2716
rtibia 1.03368e-014
rfoot -14.0371 -15.887
rtoes -11.4623
lfemur -21.6516 1.90817 -15.41
ltibia 29.5971
lfoot -14.9092 1.7742
ltoes -56.3858
739
root 0.0265371 18.7952 5.17092 8.53096 1.9091 -0.958925
lowerback 23.7716 -0.343617 -0.00634023
upperback 10.1203 -0.351234 1.64723
thorax -2.11548 -0.208286 1.86099
lowerneck -23.0918 -1.77837 -2.50126
upperneck 20.6172 -2.3729 3.05599
head 10.495 -0.898471 1.14053
rclavicle 5.36719e-015 1.98785e-015
rhumerus -35.7362 73.7445 -121.604
rradius 104.799
rwrist -40.4142
rhand 36.1833 -40.0193
rfingers 7.12502
rthumb 59.1632 -54.6491
lclavicle 5.36719e-015 1.98785e-015
lhumerus -48.7553 -63.7696 144.303
lradius 119.898
lwrist 32.9883
lhand 6.47166 -12.2261
lfingers 7.12502
lthumb 31.7726 15.0251
rfemur -2.20362 0.751333 12.3001
rtibia -3.97569e-015
rfoot -14.3408 -15.6941
rtoes -11.8489
lfemur -21.4477 1.93852 -15.4568
ltibia 29.8865
lfoot -15.2371 1.87787
ltoes -56.4086
740
root 0.0118191 18.7702 5.16368 8.60297 1.97518 -0.761091
lowerback 23.7316 -0.337401 -0.010386
upperback 10.2622 -0.352579 1.48145
thorax -1.94209 -0.205851 1.68385
lowerneck -23.1575 -1.87756 -2.58485
upperneck 20.2613 -2.5269 3.27949
head 10.387 -0.948509 1.2084
rclavicle -9.14409e-015 1.41137e-014
rhumerus -35.3791 73.6074 -121.401
rradius 104.736
rwrist -40.4724
rhand 36.3914 -40.9242
rfingers 7.12502
rthumb 59.3425 -55.3767
lclavicle -9.14409e-015 1.41137e-014
lhumerus -48.8932 -63.9723 144.295
lradius 119.909
lwrist 33.0313
lhand 6.35063 -12.1496
lfingers 7.12502
lthumb 31.6574 15.1245
rfemur -2.2666 0.650203 12.1604
rtibia -7.95139e-015
rfoot -14.7151 -15.5112
rtoes -11.4665
lfemur -21.7249 1.63363 -15.6565
ltibia 30.176
lfoot -15.6799 2.18857
ltoes -56.2874
741
root -0.00216326 18.7454 5.154 8.69057 1.96142 -0.593035
lowerback 23.6798 -0.32729 0.0414286
upperback 10.3818 -0.338729 1.28677
thorax -1.78846 -0.193349 1.44036
lowerneck -23.2066 -1.96928 -2.76631
upperneck 19.9596 -2.6781 3.66572
head 10.3008 -0.98496 1.35121
rclavicle -7.85199e-015 5.36719e-015
rhumerus -35.2245 73.5252 -121.412
rradius 104.699
rwrist -40.4423
rhand 36.1238 -40.82
rfingers 7.12502
rthumb 59.1118 -55.5001
lclavicle -7.85199e-015 5.36719e-015
lhumerus -49.0804 -64.0831 144.28
lradius 119.949
lwrist 33.0518
lhand 6.41001 -12.2617
lfingers 7.12502
lthumb 31.7139 15.0012
rfemur -2.38822 0.62755 12.0368
rtibia 8.74653e-015
rfoot -14.9313 -15.401
rtoes -11.5773
lfemur -21.9777 1.33873 -15.8252
ltibia 30.4091
lfoot -16.073 2.55627
ltoes -56.1752
742
root -0.0144814 18.7271 5.14233 8.78984 1.90679 -0.509176
lowerback 23.6952 -0.309794 0.119969
upperback 10.4315 -0.306096 1.15919
thorax -1.74381 -0.171869 1.25044
lowerneck -23.116 -2.02007 -2.81522
upperneck 19.6317 -2.75528 3.79583
head 10.1719 -1.01105 1.39196
rclavicle -8.24956e-015 1.76918e-014
rhumerus -35.4563 73.4865 -121.688
rradius 104.662
rwrist -40.3226
rhand 35.8497 -40.2681
rfingers 7.12502
rthumb 58.8749 -55.1777
lclavicle -8.24956e-015 1.76918e-014
lhumerus -49.1452 -64.0541 144.286
lradius 119.938
lwrist 33.0235
lhand 6.56892 -12.3748
lfingers 7.12502
lthumb 31.8653 14.8581
rfemur -2.56034 0.653986 11.9909
rtibia 1.66979e-014
rfoot -14.9462 -15.4023
rtoes -12.066
lfemur -22.2511 1.23562 -15.9061
ltibia 30.628
lfoot -16.219 2.7965
ltoes -56.2325
